<?xml version="1.0" encoding="UTF-8" standalone="no"?>
<svg
   height="512pt"
   viewBox="0 0 512 512"
   width="512pt"
   version="1.1"
   id="svg11"
   sodipodi:docname="parachute-dark.svg"
   inkscape:version="1.4.2 (ebf0e940, 2025-05-08)"
   xmlns:inkscape="http://www.inkscape.org/namespaces/inkscape"
   xmlns:sodipodi="http://sodipodi.sourceforge.net/DTD/sodipodi-0.dtd"
   xmlns:xlink="http://www.w3.org/1999/xlink"
   xmlns="http://www.w3.org/2000/svg"
   xmlns:svg="http://www.w3.org/2000/svg">
  <defs
     id="defs11">
    <linearGradient
       id="linearGradient26"
       inkscape:collect="always">
      <stop
         style="stop-color:#404040;stop-opacity:1;"
         offset="0.57763976"
         id="stop26" />
      <stop
         style="stop-color:#b6b6b6;stop-opacity:1;"
         offset="0.61490685"
         id="stop27" />
    </linearGradient>
    <inkscape:path-effect
       effect="mirror_symmetry"
       start_point="256,0"
       end_point="256,512"
       center_point="256,256"
       id="path-effect13"
       is_visible="false"
       lpeversion="1.2"
       lpesatellites=""
       mode="vertical"
       discard_orig_path="false"
       fuse_paths="false"
       oposite_fuse="false"
       split_items="false"
       split_open="false"
       link_styles="false" />
    <inkscape:path-effect
       effect="mirror_symmetry"
       start_point="256,0"
       end_point="256,512"
       center_point="256,256"
       id="path-effect12"
       is_visible="true"
       lpeversion="1.2"
       lpesatellites=""
       mode="vertical"
       discard_orig_path="false"
       fuse_paths="false"
       oposite_fuse="false"
       split_items="true"
       split_open="false"
       link_styles="false" />
    <linearGradient
       inkscape:collect="always"
       xlink:href="#linearGradient26"
       id="linearGradient27"
       x1="255.99786"
       y1="5.8763423"
       x2="255.99786"
       y2="508.83911"
       gradientUnits="userSpaceOnUse" />
  </defs>
  <sodipodi:namedview
     id="namedview11"
     pagecolor="#ffffff"
     bordercolor="#000000"
     borderopacity="0.25"
     inkscape:showpageshadow="2"
     inkscape:pageopacity="0.0"
     inkscape:pagecheckerboard="0"
     inkscape:deskcolor="#d1d1d1"
     inkscape:document-units="pt"
     inkscape:zoom="1.7234228"
     inkscape:cx="380.05763"
     inkscape:cy="434.60026"
     inkscape:window-width="1800"
     inkscape:window-height="1097"
     inkscape:window-x="0"
     inkscape:window-y="44"
     inkscape:window-maximized="0"
     inkscape:current-layer="svg11" />
  <path
     d="m 94.308978,126.0062 c -45.976875,8.55312 -78.592499,49.66062 -78.592499,99.07187 0,38.95938 21.669374,72.72563 53.361874,89.4775 10.94625,-23.59 32.545627,-41.01562 58.441247,-45.84562 0.10938,-0.17938 -2.01687,-0.33688 -1.88125,-0.52063"
     fill="#f5737f"
     id="path1"
     style="stroke-width:1.12" />
  <path
     d="m 385.26398,268.18932 c 0.14,0.17938 -0.87063,0.34125 -0.75688,0.52063 25.89563,4.83 47.46875,22.25562 58.41938,45.84562 31.71,-16.75187 53.3575,-50.51812 53.3575,-89.4775 0,-49.41125 -32.585,-90.51875 -78.56625,-99.07187"
     fill="#ffa6cf"
     id="path2"
     style="stroke-width:1.12" />
  <g
     fill="#eff3f3"
     id="g7"
     transform="matrix(1.12,0,0,1.12,-30.719772,-29.446302)">
    <path
       d="m 186.94141,98.726562 c -30.57032,0 -57.51563,15.902348 -73.31641,40.070308 -9.3125,14.26954 -14.757812,31.39844 -14.757812,49.83985 0,32.73047 17.128902,61.36719 42.730472,77.10937 11.93359,-17.99609 29.5039,-30.3164 51.97265,-32.11718"
       id="path6"
       sodipodi:nodetypes="ccscc" />
    <path
       d="m 318.15234,233.60547 c 22.57032,1.72265 40.25,14.07031 52.25391,32.14062 25.59766,-15.73828 42.72656,-44.3789 42.72656,-77.10937 0,-18.44141 -5.4414,-35.57031 -14.7539,-49.83985 C 382.57812,114.63281 357.63672,98.730469 327.0625,98.730469"
       id="path7"
       sodipodi:nodetypes="ccscc" />
  </g>
  <path
     d="m 182.00148,80.169323 c -15.34313,16.21375 -25.59813,37.458747 -28.16625,61.061877 -0.44625,3.88062 -0.66063,7.80937 -0.66063,11.8125 0,34.2825 16.09563,64.70625 40.99375,83.86 0.44625,0.0481 0.86625,0.14437 1.29063,0.21437 1.29937,-1.36937 2.63812,-2.70812 4.025,-3.97687 13.3875,-12.44688 30.72562,-20.51875 49.87937,-22.07625 2.18313,-0.1575 4.41,-0.25375 6.63688,-0.25375 V 48.052447 c -29.05875,0 -55.31313,12.306876 -73.99875,32.116876 z m 0,0"
     fill="#60a4ff"
     id="path8"
     style="stroke-width:1.12;fill:#1e66f5;fill-opacity:1" />
  <path
     d="m 358.19148,141.46307 c -2.52,-23.66875 -12.775,-44.983747 -28.14,-61.223747 C 311.36585,60.381198 285.08523,48.052447 256.00023,48.052447 V 210.8112 h 0.0263 c 2.35375,0 4.68125,0.0962 6.99125,0.28 19.17125,1.6275 36.51375,9.79125 49.87937,22.33 1.295,1.19875 2.54188,2.45 3.7625,3.74062 0.35438,-0.07 0.70875,-0.13562 1.085,-0.16187 24.94188,-19.17563 41.08125,-49.65188 41.08125,-83.95625 0,-3.9025 -0.21,-7.7875 -0.63437,-11.58063 z m 0,0"
     fill="#9bc6ff"
     id="path9"
     style="stroke-width:1.12;fill:#7287fd;fill-opacity:1" />
  <path
     id="path29"
     style="fill:url(#linearGradient27);stroke-width:1.12;fill-rule:nonzero"
     d="M 416.43164 296.86084 C 414.79308 295.18479 413.21418 293.64668 411.71484 292.30518 L 408.69727 290.67627 C 411.41228 292.54842 413.99692 294.61605 416.43164 296.86084 z " />
  <g
     id="g29">
    <path
       d="m 363.40648,390.12932 c -4.67688,0 -8.96438,-3.04062 -10.54375,-7.43312 -1.55313,-4.33125 -0.2275,-9.345 3.30312,-12.31125 3.67938,-3.10188 9.05625,-3.5175 13.15125,-0.97125 3.91125,2.42812 5.97625,7.18375 5.06625,11.69875 -1.04125,5.1625 -5.69187,9.01687 -10.97687,9.01687 z"
       id="path10"
       style="fill:#e6e6e6;fill-opacity:1;stroke:none;stroke-width:15.62;stroke-dasharray:none;stroke-opacity:1"
       sodipodi:nodetypes="sccccs" />
    <path
       id="path11"
       style="fill:#e6e6e6;fill-opacity:1;fill-rule:nonzero;stroke:none;stroke-width:15.62;stroke-dasharray:none;stroke-opacity:1"
       d="m 385.13262,269.27262 c -8.41232,-5.80414 -15.50716,-5.22135 -18.7616,4.49557 -26.98452,42.09745 -53.96903,84.19491 -80.95354,126.29236 14.04913,-52.53767 28.27469,-105.06919 42.21404,-157.61062 -2.95894,-7.42035 -24.21238,-11.00571 -23.93008,1.56975 -15.90032,59.74849 -31.80063,119.49697 -47.70095,179.24546 -16.3731,-62.24297 -31.75717,-124.78109 -49.99258,-186.50985 -8.67504,-6.57335 -32.5842,-8.28001 -21.78335,5.20639 13.11704,48.88913 29.24278,109.20951 42.35894,158.09887 -28.28027,-43.96289 -56.56055,-87.92578 -84.84082,-131.88867 -8.59263,1.94391 -25.98882,6.69354 -15.47562,17.34816 27.39243,42.583 54.78485,85.166 82.17728,127.749 -41.64551,-33.95459 -83.29102,-67.90918 -124.936527,-101.86377 -9.593906,-5.493 -34.980481,-6.37987 -20.413969,9.93931 8.937497,11.72042 21.987015,19.37492 32.898346,29.13991 51.51847,41.92362 102.88482,84.0439 154.49786,125.84526 9.8059,5.335 16.79612,-5.67851 24.02137,-10.48527 20.54951,-16.96181 41.53295,-33.44465 61.8082,-50.70916 9.84509,-12.13577 -10.22394,-25.34878 -18.79391,-13.26188 l -13.97439,11.3946 84.98877,-132.11718 c 1.4801,-3.33362 -2.41834,-8.372 -3.40747,-11.87824 z"
       sodipodi:nodetypes="ccccccccsccccccccscccc" />
    <path
       id="path28"
       style="fill:#e6e6e6;fill-opacity:1;fill-rule:nonzero;stroke:none;stroke-width:15.62;stroke-dasharray:none;stroke-opacity:1"
       d="m 444.74854,327.04834 c 6.29218,-4.93013 9.44839,-13.38064 7.11905,-16.53645 -4.01106,-5.43421 -21.57586,-2.61273 -20.65859,-1.14789 l -38.60011,31.29713 c -4.795,3.91126 -5.51235,10.96379 -1.60547,15.75879 2.21376,2.71687 5.43881,4.12061 8.68945,4.12061 2.485,0 4.99121,-0.82202 7.06934,-2.51953 z"
       sodipodi:nodetypes="csccsscc" />
  </g>
  <path
     id="path27"
     style="fill:#333333;fill-rule:nonzero;stroke-width:1.12"
     d="m 256.00049,36.852539 c -30.13062,0 -58.28789,11.733594 -79.68164,33.105469 -34.15125,0.730625 -65.81792,17.500685 -86.061037,45.435062 -24.097506,4.97437 -45.788321,18.36098 -61.262696,37.86474 -15.785,19.90187 -24.4790037,45.40357 -24.4790037,71.81983 0,41.96062 22.7322267,80.04044 59.3291017,99.37793 0.18375,0.0962 0.368514,0.18933 0.55664,0.27246 l 4.110352,3.35156 c 5.726888,-5.39553 10.982337,-11.74663 15.723633,-17.8125 1.700169,-2.60465 24.47869,-36.51056 52.78495,-28.04719 19.13988,-47.63597 53.08541,-37.77107 60.18799,-35.0876 27.18515,-20.49776 49.38387,-31.64582 83.89182,-20.6162 18.43,5.25673 33.09804,22.08523 33.09804,22.08523 3.22481,-1.78125 33.4133,-16.70913 62.89007,30.67955 34.84169,3.99818 45.00092,26.24182 67.65984,47.76745 l 2.84179,-2.31592 c 0.19251,-0.0875 0.38021,-0.18059 0.56397,-0.27685 36.59249,-19.32437 59.3247,-57.40419 59.3247,-99.37793 0,-26.41626 -8.68811,-51.91793 -24.46435,-71.81543 C 469.4609,136.1647 451.12116,123.76646 430.57179,117.61522 409.12543,88.290387 368.18868,67.200404 331.49121,65.980957 313.96549,47.133457 284.21049,36.852539 256.00049,36.852539 Z m -11.2002,23.087402 V 200.27197 c -18.49751,2.24875 -36.13788,10.07553 -50.28662,22.29053 -19.25437,-17.7625 -30.13916,-42.65168 -30.13916,-69.51855 0,-3.59188 0.1966,-7.13608 0.59473,-10.60108 2.21811,-20.38751 11.15725,-39.76922 25.16601,-54.574218 l 0.0132,-0.01172 c 14.77438,-15.666896 33.8706,-25.353243 54.65185,-27.916993 z m 22.40039,0 c 20.80749,2.568124 39.9215,12.275278 54.71338,27.999024 14.035,14.831255 22.96382,34.261695 25.13819,54.710445 l 0.009,0.0601 c 0.37624,3.35562 0.56542,6.83448 0.56542,10.33448 0,26.83625 -10.86851,51.71218 -30.08789,69.49218 -14.2102,-12.22375 -31.82727,-20.02858 -50.33789,-22.27295 z m 87.25489,34.539551 c 20.72875,4.847494 38.65215,17.798578 51.62841,37.647948 9.62062,14.73937 14.70557,31.92359 14.70557,49.69922 0,28.24937 -12.60011,54.11056 -34.15137,71.00244 -11.25687,-13.48813 -25.23145,-23.05258 -40.87207,-28.04883 15.64062,-20.20812 24.25928,-45.20632 24.25928,-71.73632 0,-4.32251 -0.23643,-8.62309 -0.70019,-12.78809 -1.72375,-16.15687 -6.85901,-31.79824 -14.86963,-45.776368 z m -197.23828,0.569824 c -7.78312,13.768124 -12.78845,29.106654 -14.50782,44.904784 -0.48563,4.24375 -0.73535,8.64923 -0.73535,13.08985 0,26.51249 8.6068,51.48416 24.2168,71.67041 -15.71938,4.935 -29.54072,14.42526 -40.8501,28.09277 -21.53813,-16.88751 -34.129394,-42.73985 -34.129394,-70.98047 0,-17.76688 5.083455,-34.95543 14.699704,-49.69043 12.21937,-18.68562 30.56429,-31.72754 51.30616,-37.086914 z m 279.50097,48.873044 c 29.29063,14.1925 48.36621,44.98715 48.36621,81.15528 0,29.87249 -14.31611,57.25563 -37.98486,73.82812 -9.67313,-15.18124 -23.44916,-27.15888 -39.51416,-34.52637 22.59249,-20.97375 35.60303,-50.54523 35.60303,-82.55273 0,-13.04187 -2.20459,-25.83367 -6.47022,-37.9043 z m -361.43994,0.009 c -4.261249,12.07062 -6.467285,24.85801 -6.467285,37.89551 0,32.01188 13.012024,61.58193 35.613285,82.56006 -16.069377,7.36312 -29.851273,19.34217 -39.520023,34.51904 -23.673124,-16.58124 -37.987793,-43.96438 -37.987793,-73.82812 0,-36.15938 19.075567,-66.94524 48.361816,-81.14649 z"
     sodipodi:nodetypes="scccsccccccccccccscccscccsccccccccscccccsccsccccsccsccccccsccsccscs" />
</svg>
