<?xml version="1.0" encoding="UTF-8" standalone="no"?>
<svg
   height="512pt"
   viewBox="0 0 512 512"
   width="512pt"
   version="1.1"
   id="svg11"
   sodipodi:docname="parachute-dark.svg"
   inkscape:version="1.4.2 (ebf0e940, 2025-05-08)"
   xmlns:inkscape="http://www.inkscape.org/namespaces/inkscape"
   xmlns:sodipodi="http://sodipodi.sourceforge.net/DTD/sodipodi-0.dtd"
   xmlns:xlink="http://www.w3.org/1999/xlink"
   xmlns="http://www.w3.org/2000/svg"
   xmlns:svg="http://www.w3.org/2000/svg">
  <defs
     id="defs11">
    <linearGradient
       id="linearGradient26"
       inkscape:collect="always">
      <stop
         style="stop-color:#404040;stop-opacity:1;"
         offset="0.57763976"
         id="stop26" />
      <stop
         style="stop-color:#b6b6b6;stop-opacity:1;"
         offset="0.61490685"
         id="stop27" />
    </linearGradient>
    <inkscape:path-effect
       effect="mirror_symmetry"
       start_point="256,0"
       end_point="256,512"
       center_point="256,256"
       id="path-effect13"
       is_visible="false"
       lpeversion="1.2"
       lpesatellites=""
       mode="vertical"
       discard_orig_path="false"
       fuse_paths="false"
       oposite_fuse="false"
       split_items="false"
       split_open="false"
       link_styles="false" />
    <inkscape:path-effect
       effect="mirror_symmetry"
       start_point="256,0"
       end_point="256,512"
       center_point="256,256"
       id="path-effect12"
       is_visible="true"
       lpeversion="1.2"
       lpesatellites=""
       mode="vertical"
       discard_orig_path="false"
       fuse_paths="false"
       oposite_fuse="false"
       split_items="true"
       split_open="false"
       link_styles="false" />
    <linearGradient
       inkscape:collect="always"
       xlink:href="#linearGradient26"
       id="linearGradient27"
       x1="255.99786"
       y1="5.8763423"
       x2="255.99786"
       y2="508.83911"
       gradientUnits="userSpaceOnUse"
       gradientTransform="matrix(0.97720542,-0.39481662,0.39481662,0.97720542,-81.643316,115.45851)" />
  </defs>
  <sodipodi:namedview
     id="namedview11"
     pagecolor="#ffffff"
     bordercolor="#000000"
     borderopacity="0.25"
     inkscape:showpageshadow="2"
     inkscape:pageopacity="0.0"
     inkscape:pagecheckerboard="0"
     inkscape:deskcolor="#d1d1d1"
     inkscape:document-units="pt"
     inkscape:zoom="0.63601663"
     inkscape:cx="375.77634"
     inkscape:cy="449.67378"
     inkscape:window-width="1280"
     inkscape:window-height="2107"
     inkscape:window-x="2560"
     inkscape:window-y="25"
     inkscape:window-maximized="0"
     inkscape:current-layer="svg11"
     showguides="false" />
  <path
     d="m 60.265268,201.35771 c -41.551937,26.51057 -57.1941779,79.55824 -37.685793,127.84317 15.381809,38.07133 49.888715,62.51246 87.472715,66.36975 1.38303,-27.37403 15.61012,-52.93024 39.0085,-67.87417 0.0361,-0.21847 -2.10391,0.4671 -2.04393,0.23399"
     fill="#f5737f"
     id="path1"
     style="stroke-width:1.18042" />
  <path
     d="m 400.72434,225.42594 c 0.20762,0.12003 -0.71606,0.67721 -0.53407,0.80759 27.21231,-5.50412 55.1736,3.00686 75.18833,21.73565 24.37328,-28.88966 32.19586,-70.43301 16.81405,-108.50432 C 472.68426,91.179909 424.6121,63.874537 376.30205,73.670543"
     fill="#ffa6cf"
     id="path2"
     style="stroke-width:1.18042" />
  <g
     fill="#eff3f3"
     id="g7"
     transform="matrix(1.09447,-0.44219461,0.44219461,1.09447,-123.28873,98.812099)">
    <path
       d="m 186.94141,98.726562 c -30.57032,0 -57.51563,15.902348 -73.31641,40.070308 -9.3125,14.26954 -14.757812,31.39844 -14.757812,49.83985 0,32.73047 17.128902,61.36719 42.730472,77.10937 11.93359,-17.99609 29.5039,-30.3164 51.97265,-32.11718"
       id="path6"
       sodipodi:nodetypes="ccscc" />
    <path
       d="m 318.15234,233.60547 c 22.57032,1.72265 40.25,14.07031 52.25391,32.14062 25.59766,-15.73828 42.72656,-44.3789 42.72656,-77.10937 0,-18.44141 -5.4414,-35.57031 -14.7539,-49.83985 C 382.57812,114.63281 357.63672,98.730469 327.0625,98.730469"
       id="path7"
       sodipodi:nodetypes="ccscc" />
  </g>
  <path
     d="m 127.8617,121.94319 c -8.59192,21.90189 -10.2253,46.71146 -3.41597,70.7905 1.09606,3.96835 2.4377,7.89219 4.0182,11.80408 13.5353,33.50103 41.27584,56.87647 73.16864,65.76342 0.45506,-0.12918 0.90351,-0.20093 1.34584,-0.30008 0.7291,-1.85117 1.50878,-3.68795 2.36312,-5.47534 8.16811,-17.44878 21.9241,-32.18203 40.02633,-41.26624 2.07117,-1.01586 4.20928,-1.98911 6.3854,-2.86832 L 187.49341,61.342469 C 159.09704,72.815346 138.30007,95.207354 127.8617,121.94319 Z m 0,0"
     fill="#60a4ff"
     id="path8"
     style="fill:#1e66f5;fill-opacity:1;stroke-width:1.18042" />
  <path
     d="M 324.23531,112.27702 C 312.42794,90.142739 293.99118,73.362454 272.56461,63.558995 246.46458,51.530925 215.91542,49.859228 187.49341,61.342469 l 64.25985,159.048741 0.0257,-0.0103 c 2.3001,-0.9293 4.61253,-1.75422 6.94244,-2.48665 19.37681,-5.97872 39.54718,-4.84816 57.55864,2.1278 1.73877,0.66014 3.45124,1.39057 5.1536,2.16986 0.31867,-0.20831 0.63905,-0.41236 0.99635,-0.58656 16.80249,-28.58599 20.54144,-64.73964 6.9975,-98.26207 -1.54077,-3.81353 -3.27985,-7.52707 -5.19213,-11.0662 z m 0,0"
     fill="#9bc6ff"
     id="path9"
     style="fill:#7287fd;fill-opacity:1;stroke-width:1.18042" />
  <path
     id="path29"
     style="fill:url(#linearGradient27);fill-rule:nonzero;stroke-width:1.18042"
     d="m 442.50153,241.13839 c -2.26293,-0.9909 -4.41311,-1.87058 -6.40793,-2.58955 l -3.5919,-0.40039 c 3.39228,0.75755 6.73432,1.75758 9.99983,2.98994 z" />
  <g
     id="g29"
     transform="matrix(0.97720542,-0.39481662,0.39481662,0.97720542,-81.643316,115.45851)">
    <path
       style="baseline-shift:baseline;display:inline;overflow:visible;opacity:1;vector-effect:none;fill:#99a4c5;fill-opacity:1;enable-background:accumulate;stop-color:#000000;stop-opacity:1"
       d="m 362.80664,370.78125 c 1.70214,-0.12788 3.44045,0.25612 4.92578,1.17969 l 0.002,0.002 c 2.82197,1.75189 4.3647,5.3033 3.70899,8.55664 -0.75618,3.7491 -4.21072,6.60938 -8.03711,6.60938 -3.37571,0 -6.57436,-2.26607 -7.71875,-5.44532 -1.12176,-3.12827 -0.13082,-6.86879 2.4082,-9.00195 l 0.002,-0.002 0.002,-0.002 c 1.33957,-1.12932 3.00489,-1.7686 4.70703,-1.89648 z"
       id="path41" />
    <path
       style="baseline-shift:baseline;display:inline;overflow:visible;opacity:1;vector-effect:none;fill:#99a4c5;fill-opacity:1;enable-background:accumulate;stop-color:#000000;stop-opacity:1"
       d="m 188.04102,234.82812 c 4.5059,-0.34512 11.75396,1.54526 15.4121,3.90821 18.06412,61.27508 33.36512,123.3987 49.64649,185.29297 l 2.88476,10.96484 2.91602,-10.95703 c 15.90032,-59.74849 31.7989,-119.4976 47.69922,-179.24609 l 0.11133,-0.41211 -0.01,-0.42579 c -0.0517,-2.30266 0.60867,-3.20176 1.85352,-4.02148 1.24485,-0.81972 3.37578,-1.30565 5.76172,-1.19922 2.38593,0.10644 4.97251,0.77638 6.96289,1.75586 1.59305,0.78395 2.55885,1.71998 3.10547,2.48828 -13.82671,52.09919 -27.9301,104.1972 -41.86524,156.3086 l 5.42383,2.39453 c 26.98451,-42.09745 53.9686,-84.19552 80.95312,-126.29297 l 0.20118,-0.3125 0.11718,-0.35352 c 1.42446,-4.25306 3.15792,-5.6787 5.18164,-6.07617 1.90659,-0.37446 4.88634,0.48246 8.43164,2.78516 0.69327,1.79035 1.53331,3.54043 2.17969,5.03711 0.79583,1.8427 0.89057,3.09345 0.78906,3.40429 l -84.76953,131.77344 4.41993,3.94922 14.29101,-11.65234 0.23438,-0.33204 c 1.67378,-2.36067 3.62442,-3.28429 5.76562,-3.48242 2.1412,-0.19813 4.50551,0.48257 6.40039,1.77344 1.89489,1.29087 3.24703,3.12995 3.67774,5.01172 0.42197,1.8436 0.12001,3.82385 -1.75196,6.19726 -20.12029,17.1187 -40.98014,33.51518 -61.46289,50.42188 l 0.24805,-0.18359 c -4.12091,2.74152 -7.64049,6.6849 -11.08984,9.07617 -1.72468,1.19563 -3.35902,1.97977 -4.88868,2.23437 -1.48527,0.24722 -2.9373,0.0685 -4.79492,-0.90625 C 200.57454,432.03879 149.30816,390.00445 97.884766,348.1582 86.693283,338.16667 73.917671,330.5923 65.478516,319.52539 l -0.07031,-0.0918 -0.07617,-0.0859 c -3.362342,-3.76691 -3.737926,-6.01768 -3.617187,-6.55079 0.06037,-0.26655 0.132392,-0.42088 0.603515,-0.74414 0.471124,-0.32325 1.346678,-0.68533 2.503907,-0.91406 4.587008,-0.90662 13.144362,0.63203 17.0625,2.81445 41.554399,33.88032 83.109649,67.76032 124.664059,101.64063 l 4.41797,-3.94727 c -27.39243,-42.583 -54.78335,-85.167 -82.17578,-127.75 l -0.16993,-0.26171 -0.21875,-0.22266 c -2.2595,-2.2899 -2.50567,-3.61392 -2.39257,-4.39258 0.1131,-0.77865 0.82422,-1.82202 2.5039,-2.95117 2.89819,-1.94828 7.8475,-3.41399 11.89649,-4.42188 27.88321,43.34566 55.76717,86.69146 83.65039,130.03711 l 5.41992,-2.40039 C 216.36487,350.39595 200.24066,290.07487 187.12305,241.18359 l -0.16407,-0.60742 -0.39257,-0.49023 c -1.19097,-1.48709 -1.78233,-2.65254 -1.98438,-3.33789 -0.20205,-0.68535 -0.1011,-0.76718 -0.0742,-0.81836 0.0538,-0.10236 1.14497,-0.91864 3.53321,-1.10157 z"
       id="path40" />
    <path
       style="baseline-shift:baseline;display:inline;overflow:visible;opacity:1;vector-effect:none;fill:#99a4c5;fill-opacity:1;enable-background:accumulate;stop-color:#000000;stop-opacity:1"
       d="m 439.82227,310.34766 c 2.20335,-0.0965 4.53772,0.0225 6.35937,0.41796 1.82165,0.39544 2.96366,1.11031 3.27148,1.52735 0.0204,0.0276 0.39142,2.05798 -0.6875,4.68164 -1.07891,2.62366 -3.18443,5.61086 -5.86718,7.71289 l -0.0234,0.0176 -38.00977,30.99219 c -1.53041,1.25011 -3.34846,1.84375 -5.17187,1.84375 -2.38697,0 -4.73115,-1.01257 -6.36328,-3.01563 -2.8834,-3.53886 -2.36403,-8.65165 1.17578,-11.53906 l 39.14258,-31.73828 c 0.20319,-0.0683 0.23457,-0.0952 0.54883,-0.17188 1.31916,-0.32186 3.42164,-0.63204 5.625,-0.72851 z"
       id="path42" />
  </g>
  <path
     id="path27"
     style="fill:#333333;fill-rule:nonzero;stroke-width:1.18042"
     d="m 183.07174,50.397755 c -29.4438,11.896069 -52.32663,34.479161 -64.79474,63.810475 -33.084321,14.19746 -57.408065,43.08779 -66.160791,78.37773 -21.584251,14.37508 -37.495377,36.02043 -44.9166113,61.18915 -7.56759907,25.6804 -5.9949314,54.03334 4.4346473,79.84745 16.566751,41.00415 53.815351,69.24089 97.212785,73.68854 0.21751,0.022 0.43486,0.0396 0.65152,0.0465 l 5.33991,1.65232 c 3.46611,-7.53361 6.09423,-15.81488 8.33255,-23.61442 0.63306,-3.21654 9.50573,-45.34292 40.50824,-48.24825 -0.10388,-54.10687 36.96271,-57.86908 44.96286,-58.051 18.47263,-30.76367 35.76389,-50.42205 73.83992,-53.26816 20.08534,-2.13956 41.0632,8.51415 41.0632,8.51415 2.44804,-3.01384 26.05463,-29.52036 73.56932,5.15018 35.62603,-9.84903 54.33585,7.87655 84.97695,19.96539 l 1.86265,-3.38513 c 0.15358,-0.1615 0.30023,-0.32657 0.4418,-0.49319 28.1288,-33.33121 35.3083,-79.51806 18.73636,-120.53504 C 492.70274,109.23032 474.1442,87.740165 450.87169,74.524941 430.87651,63.168421 408.05979,58.293627 385.55021,60.395835 353.01479,40.206829 304.68449,35.760092 268.34207,49.057213 243.77454,37.558779 210.63871,39.259979 183.07174,50.397755 Z m -1.8296,26.98316 55.40542,137.133225 c -17.18803,9.50061 -31.33615,24.1137 -40.33968,41.63642 -25.82841,-9.75567 -46.29175,-29.78001 -56.89924,-56.03446 -1.41814,-3.51001 -2.62532,-7.05103 -3.60431,-10.59425 -5.88178,-20.79852 -4.79861,-43.26776 3.04556,-63.26617 l 0.008,-0.0166 c 8.25206,-21.14294 23.08866,-38.148004 42.384,-48.858097 z m 21.88978,-8.844045 c 21.34714,-5.705559 43.85799,-3.766204 64.5207,5.759045 19.57071,8.951933 35.96745,24.414217 46.16577,43.538375 l 0.0326,0.0553 c 1.69251,3.1306 3.25089,6.45547 4.63275,9.87567 10.59539,26.22454 9.79606,54.82451 -1.96538,79.78735 -18.71243,-6.3347 -39.0094,-7.0061 -57.98419,-1.89102 z m 98.90274,-0.697444 c 22.17013,-3.447058 44.79827,2.132354 65.3156,16.406023 15.22066,10.605011 26.97433,25.389901 33.99244,42.760351 11.15332,27.60544 9.05085,57.85187 -5.33995,82.8675 -16.32562,-8.73628 -33.75786,-12.56531 -51.01457,-11.2725 7.30562,-25.92267 5.8581,-53.75383 -4.61638,-79.67908 -1.7066,-4.22399 -3.63558,-8.33319 -5.73318,-12.22016 C 326.57516,91.593546 315.38148,78.336201 302.03466,67.839426 Z M 109.51732,146.26922 c -2.16982,16.52718 -1.00515,33.49227 3.55204,49.60913 1.20094,4.33875 2.69627,8.74238 4.4495,13.08179 10.46757,25.90816 28.73741,46.9125 51.96147,60.47552 -13.41266,11.02878 -23.17204,25.75961 -28.82746,43.5807 -27.71464,-7.99895 -50.225835,-28.29076 -61.375701,-55.88764 -7.01466,-17.3619 -8.833405,-36.16566 -5.253977,-54.36144 4.563442,-23.08411 17.34103,-43.07162 35.494128,-56.49806 z M 401.94309,83.676588 c 34.22638,2.304559 65.02538,24.865902 79.30516,60.209602 11.79416,29.19156 8.61571,61.60275 -7.97044,87.14229 -15.44644,-11.01608 -33.63743,-17.28169 -52.24504,-18.13851 13.79672,-29.41555 14.83538,-63.44974 2.19829,-94.72764 -5.14915,-12.74459 -12.35391,-24.374399 -21.28797,-34.485742 z M 48.745557,226.38789 c 0.601566,13.47788 3.494491,26.84476 8.641912,39.58508 12.638821,31.28218 37.028989,55.04083 67.397581,66.61742 -12.796,13.53974 -21.53422,30.68704 -24.990497,49.33535 -29.68005,-6.85672 -54.479742,-27.964 -66.270441,-57.14701 -14.276326,-35.33515 -7.790346,-72.95061 15.221445,-98.39084 z"
     sodipodi:nodetypes="scccsccccccccccccscccscccsccccccccscccccsccsccccsccsccccccsccsccscs" />
</svg>
