<?xml version="1.0" encoding="UTF-8" standalone="no"?>
<svg
   height="512pt"
   viewBox="0 0 512 512"
   width="512pt"
   version="1.1"
   id="svg11"
   sodipodi:docname="parachute.svg"
   inkscape:version="1.4.2 (ebf0e940, 2025-05-08)"
   xmlns:inkscape="http://www.inkscape.org/namespaces/inkscape"
   xmlns:sodipodi="http://sodipodi.sourceforge.net/DTD/sodipodi-0.dtd"
   xmlns="http://www.w3.org/2000/svg"
   xmlns:svg="http://www.w3.org/2000/svg">
  <defs
     id="defs11">
    <inkscape:path-effect
       effect="mirror_symmetry"
       start_point="256,0"
       end_point="256,512"
       center_point="256,256"
       id="path-effect13"
       is_visible="false"
       lpeversion="1.2"
       lpesatellites=""
       mode="vertical"
       discard_orig_path="false"
       fuse_paths="false"
       oposite_fuse="false"
       split_items="false"
       split_open="false"
       link_styles="false" />
    <inkscape:path-effect
       effect="mirror_symmetry"
       start_point="256,0"
       end_point="256,512"
       center_point="256,256"
       id="path-effect12"
       is_visible="true"
       lpeversion="1.2"
       lpesatellites=""
       mode="vertical"
       discard_orig_path="false"
       fuse_paths="false"
       oposite_fuse="false"
       split_items="true"
       split_open="false"
       link_styles="false" />
  </defs>
  <sodipodi:namedview
     id="namedview11"
     pagecolor="#ffffff"
     bordercolor="#000000"
     borderopacity="0.25"
     inkscape:showpageshadow="2"
     inkscape:pageopacity="0.0"
     inkscape:pagecheckerboard="0"
     inkscape:deskcolor="#d1d1d1"
     inkscape:document-units="pt"
     inkscape:zoom="0.59886855"
     inkscape:cx="285.53846"
     inkscape:cy="384.05757"
     inkscape:window-width="1064"
     inkscape:window-height="1097"
     inkscape:window-x="0"
     inkscape:window-y="44"
     inkscape:window-maximized="0"
     inkscape:current-layer="svg11" />
  <path
     d="m 94.308978,126.0062 c -45.976875,8.55312 -78.592499,49.66062 -78.592499,99.07187 0,38.95938 21.669374,72.72563 53.361874,89.4775 10.94625,-23.59 32.545627,-41.01562 58.441247,-45.84562 0.10938,-0.17938 -2.01687,-0.33688 -1.88125,-0.52063"
     fill="#f5737f"
     id="path1"
     style="stroke-width:1.12" />
  <path
     d="m 385.26398,268.18932 c 0.14,0.17938 -0.87063,0.34125 -0.75688,0.52063 25.89563,4.83 47.46875,22.25562 58.41938,45.84562 31.71,-16.75187 53.3575,-50.51812 53.3575,-89.4775 0,-49.41125 -32.585,-90.51875 -78.56625,-99.07187"
     fill="#ffa6cf"
     id="path2"
     style="stroke-width:1.12" />
  <g
     fill="#eff3f3"
     id="g7"
     transform="matrix(1.12,0,0,1.12,-30.719772,-29.446302)">
    <path
       d="m 186.94141,98.726562 c -30.57032,0 -57.51563,15.902348 -73.31641,40.070308 -9.3125,14.26954 -14.757812,31.39844 -14.757812,49.83985 0,32.73047 17.128902,61.36719 42.730472,77.10937 11.93359,-17.99609 29.5039,-30.3164 51.97265,-32.11718"
       id="path6"
       sodipodi:nodetypes="ccscc" />
    <path
       d="m 318.15234,233.60547 c 22.57032,1.72265 40.25,14.07031 52.25391,32.14062 25.59766,-15.73828 42.72656,-44.3789 42.72656,-77.10937 0,-18.44141 -5.4414,-35.57031 -14.7539,-49.83985 C 382.57812,114.63281 357.63672,98.730469 327.0625,98.730469"
       id="path7"
       sodipodi:nodetypes="ccscc" />
  </g>
  <path
     d="m 182.00148,80.169323 c -15.34313,16.21375 -25.59813,37.458747 -28.16625,61.061877 -0.44625,3.88062 -0.66063,7.80937 -0.66063,11.8125 0,34.2825 16.09563,64.70625 40.99375,83.86 0.44625,0.0481 0.86625,0.14437 1.29063,0.21437 1.29937,-1.36937 2.63812,-2.70812 4.025,-3.97687 13.3875,-12.44688 30.72562,-20.51875 49.87937,-22.07625 2.18313,-0.1575 4.41,-0.25375 6.63688,-0.25375 V 48.052447 c -29.05875,0 -55.31313,12.306876 -73.99875,32.116876 z m 0,0"
     fill="#60a4ff"
     id="path8"
     style="stroke-width:1.12" />
  <path
     d="m 358.19148,141.46307 c -2.52,-23.66875 -12.775,-44.983747 -28.14,-61.223747 C 311.36585,60.381198 285.08523,48.052447 256.00023,48.052447 V 210.8112 h 0.0263 c 2.35375,0 4.68125,0.0962 6.99125,0.28 19.17125,1.6275 36.51375,9.79125 49.87937,22.33 1.295,1.19875 2.54188,2.45 3.7625,3.74062 0.35438,-0.07 0.70875,-0.13562 1.085,-0.16187 24.94188,-19.17563 41.08125,-49.65188 41.08125,-83.95625 0,-3.9025 -0.21,-7.7875 -0.63437,-11.58063 z m 0,0"
     fill="#9bc6ff"
     id="path9"
     style="stroke-width:1.12" />
  <path
     d="m 363.40648,390.12932 c -4.67688,0 -8.96438,-3.04062 -10.54375,-7.43312 -1.55313,-4.33125 -0.2275,-9.345 3.30312,-12.31125 3.67938,-3.10188 9.05625,-3.5175 13.15125,-0.97125 3.91125,2.42812 5.97625,7.18375 5.06625,11.69875 -1.04125,5.1625 -5.69187,9.01687 -10.97687,9.01687 z m 0,0"
     id="path10"
     style="stroke-width:1.12" />
  <path
     d="m 331.49085,65.981198 c -17.52572,-18.8475 -47.28062,-29.128751 -75.49062,-29.128751 -30.13062,0 -58.28813,11.733751 -79.68188,33.105626 -34.15125,0.730625 -65.8175,17.500004 -86.060616,45.434377 -24.097506,4.97437 -45.788756,18.36187 -61.263131,37.86563 -15.785,19.90187 -24.4781243,45.40374 -24.4781243,71.82 0,41.96062 22.7324993,80.04062 59.3293743,99.37811 0.18375,0.0962 0.3675,0.18813 0.555626,0.27126 L 248.87773,475.13557 c 0,0 0.004,0 0.004,0.004 4.05564,3.63124 10.17626,3.63124 14.23626,0 v -0.004 l 71.54,-58.32749 c 4.98749,-4.06438 5.565,-11.53251 1.11562,-16.31876 -4.06,-4.37062 -10.94188,-4.5675 -15.56624,-0.80062 l -16.65564,13.58 84.98875,-132.11625 c 16.46313,4.68563 30.72563,15.51374 39.95251,30.24874 l -35.88375,29.26 c -4.795,3.91126 -5.51251,10.96376 -1.60563,15.75876 2.21376,2.71687 5.43812,4.12124 8.68876,4.12124 2.485,0 4.99187,-0.82249 7.07,-2.52 l 40.82749,-33.28937 c 0.19251,-0.0875 0.38062,-0.17937 0.56438,-0.27563 36.59249,-19.32437 59.325,-57.40437 59.325,-99.37811 0,-26.41626 -8.68876,-51.91813 -24.465,-71.81563 -13.55376,-17.0975 -31.89376,-29.49626 -52.44313,-35.6475 C 409.12476,88.290103 368.18832,67.200645 331.49085,65.981198 Z m -81.305,156.257502 c 2.04313,-0.15313 4.00313,-0.22751 5.81438,-0.22751 h 0.0131 0.0131 c 2.00812,0 4.06,0.0831 6.04187,0.24063 16.02125,1.35626 30.77375,7.90126 42.76562,18.97437 L 256.00023,423.26557 207.17961,241.2787 c 12.02249,-11.1475 26.91937,-17.73625 43.00624,-19.04 z m -65.57687,21.37625 c 0,0 0.004,0.004 0.009,0.004 l 41.965,156.44125 -84.84,-131.88874 c 8.84625,-10.99438 22.62312,-22.19875 42.86625,-24.55688 z M 208.44398,413.2687 83.507102,311.40557 c 9.222505,-14.73062 23.484998,-25.55875 39.952508,-30.24875 z m 118.93,-169.61 c 0.0131,-0.0131 0.0307,-0.0262 0.0438,-0.035 20.20812,2.3625 33.985,13.55375 42.84,24.54813 l -84.84,131.88875 z m 59.26374,9.17 c -11.25687,-13.48813 -25.23062,-23.05188 -40.87124,-28.04813 15.64062,-20.20812 24.25937,-45.20687 24.25937,-71.73687 0,-4.32251 -0.23624,-8.62313 -0.7,-12.78813 -1.72375,-16.15687 -6.86,-31.79749 -14.87062,-45.775619 20.72875,4.847494 38.65312,17.797499 51.62938,37.646869 9.62062,14.73937 14.70437,31.92437 14.70437,49.7 0,28.24937 -12.6,54.11 -34.15126,71.00188 z M 321.91398,87.939319 c 14.035,14.831251 22.96437,34.260631 25.13874,54.709381 l 0.009,0.0613 c 0.37624,3.35562 0.56437,6.83375 0.56437,10.33375 0,26.83625 -10.86749,51.71249 -30.08687,69.49249 -14.2102,-12.22375 -31.82833,-20.02875 -50.33895,-22.27312 V 59.939323 c 20.80749,2.568124 39.92187,12.27625 54.71375,27.999996 z m -131.76626,-0.0831 C 204.9221,72.189323 224.01898,62.503073 244.80023,59.939323 V 200.27182 c -18.49751,2.24875 -36.13751,10.07563 -50.28625,22.29063 -19.25437,-17.7625 -30.13937,-42.65188 -30.13937,-69.51875 0,-3.59188 0.19687,-7.13562 0.595,-10.60062 2.21811,-20.38751 11.15624,-39.76876 25.165,-54.573761 z m -32.93062,7.192494 c -7.78312,13.768127 -12.78812,29.106867 -14.50749,44.904997 -0.48563,4.24375 -0.735,8.64938 -0.735,13.09 0,26.51249 8.60562,51.485 24.21562,71.67125 -15.71938,4.935 -29.54,14.42437 -40.84938,28.09188 -21.53813,-16.88751 -34.129369,-42.73938 -34.129369,-70.98 0,-17.76688 5.083747,-34.95626 14.699999,-49.69126 12.21937,-18.68562 30.56375,-31.72749 51.30562,-37.086867 z M 26.916479,225.07808 c 0,-36.15938 19.075,-66.94626 48.361249,-81.14751 -4.261249,12.07062 -6.466249,24.85875 -6.466249,37.89625 0,32.01188 13.011244,61.5825 35.612501,82.56063 -16.069373,7.36312 -29.850627,19.34187 -39.519377,34.51874 C 41.231479,282.32495 26.916479,254.94182 26.916479,225.07808 Z m 458.167501,0 c 0,29.87249 -14.315,57.25562 -37.98375,73.82811 -9.67313,-15.18124 -23.45,-27.16 -39.515,-34.52749 22.59249,-20.97375 35.60375,-50.54438 35.60375,-82.55188 0,-13.04187 -2.205,-25.83437 -6.47063,-37.905 29.29063,14.1925 48.36563,44.98813 48.36563,81.15626 z"
     id="path11"
     sodipodi:nodetypes="cscccscccccccccccccsscccsccccscscccccccccccccccccccccscccsccccsccccccccsccccssccsccsssccssccscsc"
     style="stroke-width:1.12" />
  <path
     style="fill:#000000;stroke-width:0.84"
     d="M 255.72679,12.908219 V 312.09335"
     id="path19"
     sodipodi:nodetypes="cc" />
</svg>
