<?xml version="1.0" encoding="UTF-8" standalone="no"?>
<svg
   height="512pt"
   viewBox="0 0 512 512"
   width="512pt"
   version="1.1"
   id="svg11"
   sodipodi:docname="parachute-small.svg"
   inkscape:version="1.4.2 (ebf0e940, 2025-05-08)"
   xmlns:inkscape="http://www.inkscape.org/namespaces/inkscape"
   xmlns:sodipodi="http://sodipodi.sourceforge.net/DTD/sodipodi-0.dtd"
   xmlns="http://www.w3.org/2000/svg"
   xmlns:svg="http://www.w3.org/2000/svg">
  <defs
     id="defs11">
    <inkscape:path-effect
       effect="mirror_symmetry"
       start_point="256,0"
       end_point="256,512"
       center_point="256,256"
       id="path-effect13"
       is_visible="false"
       lpeversion="1.2"
       lpesatellites=""
       mode="vertical"
       discard_orig_path="false"
       fuse_paths="false"
       oposite_fuse="false"
       split_items="false"
       split_open="false"
       link_styles="false" />
    <inkscape:path-effect
       effect="mirror_symmetry"
       start_point="256,0"
       end_point="256,512"
       center_point="256,256"
       id="path-effect12"
       is_visible="true"
       lpeversion="1.2"
       lpesatellites=""
       mode="vertical"
       discard_orig_path="false"
       fuse_paths="false"
       oposite_fuse="false"
       split_items="true"
       split_open="false"
       link_styles="false" />
  </defs>
  <sodipodi:namedview
     id="namedview11"
     pagecolor="#ffffff"
     bordercolor="#000000"
     borderopacity="0.25"
     inkscape:showpageshadow="2"
     inkscape:pageopacity="0.0"
     inkscape:pagecheckerboard="0"
     inkscape:deskcolor="#d1d1d1"
     inkscape:document-units="pt"
     inkscape:zoom="0.68425423"
     inkscape:cx="339.78599"
     inkscape:cy="336.13237"
     inkscape:window-width="1064"
     inkscape:window-height="1097"
     inkscape:window-x="0"
     inkscape:window-y="44"
     inkscape:window-maximized="0"
     inkscape:current-layer="svg11" />
  <path
     d="m 54.632342,212.75175 c -40.718311,29.08519 -53.75841494,83.698 -31.414572,131.61453 17.617492,37.78083 53.900503,60.7267 92.20951,62.64042 -0.0523,-27.8263 13.01378,-54.49205 35.9419,-70.88598 0.0249,-0.22342 -2.10819,0.58534 -2.05977,0.34582"
     fill="#f5737f"
     id="path1"
     style="stroke-width:1.1984" />
  <path
     d="m 401.0812,219.06344 c 0.21687,0.11063 -0.68998,0.72462 -0.49856,0.84714 27.2964,-7.02616 56.09682,0.11693 77.38361,18.04142 23.17554,-30.58442 28.89903,-73.11825 11.28153,-110.89908 C 466.90395,79.136389 416.71579,54.007406 368.25777,66.505815"
     fill="#ffa6cf"
     id="path2"
     style="stroke-width:1.1984" />
  <g
     fill="#eff3f3"
     id="g7"
     transform="matrix(1.0861192,-0.50646572,0.50646572,1.0861192,-136.91006,118.53997)">
    <path
       d="m 186.94141,98.726562 c -30.57032,0 -57.51563,15.902348 -73.31641,40.070308 -9.3125,14.26954 -14.757812,31.39844 -14.757812,49.83985 0,32.73047 17.128902,61.36719 42.730472,77.10937 11.93359,-17.99609 29.5039,-30.3164 51.97265,-32.11718"
       id="path6"
       sodipodi:nodetypes="ccscc" />
    <path
       d="m 318.15234,233.60547 c 22.57032,1.72265 40.25,14.07031 52.25391,32.14062 25.59766,-15.73828 42.72656,-44.3789 42.72656,-77.10937 0,-18.44141 -5.4414,-35.57031 -14.7539,-49.83985 C 382.57812,114.63281 357.63672,98.730469 327.0625,98.730469"
       id="path7"
       sodipodi:nodetypes="ccscc" />
  </g>
  <path
     d="m 118.94458,128.64678 c -7.54711,22.66146 -7.88486,47.90112 0.29808,71.95154 1.32207,3.96502 2.89077,7.87187 4.70098,11.75389 15.5026,33.24544 44.869,55.47039 77.67528,62.78575 0.45451,-0.15515 0.90534,-0.25171 1.34853,-0.37574 0.64084,-1.91552 1.33371,-3.81916 2.1049,-5.67668 7.35402,-18.12419 20.51754,-33.79222 38.38756,-43.96396 2.04588,-1.13994 4.16185,-2.24028 6.32137,-3.24728 L 176.18152,64.039118 c -28.1797,13.140411 -48.07468,36.947262 -57.23694,64.607662 z m 0,0"
     fill="#60a4ff"
     id="path8"
     style="stroke-width:1.1984" />
  <path
     d="M 317.52185,108.41296 C 304.37503,86.59976 284.79158,70.566882 262.54763,61.76623 235.44738,50.958497 204.38668,50.886836 176.18152,64.039118 l 73.59976,157.835182 0.0255,-0.0119 c 2.28254,-1.06437 4.58314,-2.02359 6.90637,-2.88993 19.32727,-7.091 39.8368,-7.01652 58.46814,-0.90103 1.7979,0.57689 3.57288,1.22645 5.3402,1.92605 0.312,-0.22812 0.62599,-0.45201 0.97898,-0.6476 15.51612,-29.87432 17.38586,-66.72688 1.87338,-99.99352 -1.76472,-3.78446 -3.72518,-7.45696 -5.85196,-10.94345 z m 0,0"
     fill="#9bc6ff"
     id="path9"
     style="stroke-width:1.1984" />
  <path
     d="m 435.02635,347.19866 c -4.5354,2.11489 -10.06817,1.10507 -13.58606,-2.44037 -3.46475,-3.49789 -4.44644,-8.95943 -2.36397,-13.4325 2.1654,-4.67186 7.19167,-7.50634 12.31422,-6.88888 4.89093,0.58599 9.04396,4.26397 10.20318,9.05389 1.32474,5.47719 -1.44224,11.31798 -6.56737,13.70786 z m 0,0"
     id="path10"
     style="stroke-width:1.1984" />
  <path
     d="M 257.49591,47.288538 C 231.97749,36.936344 198.4735,40.421319 171.11687,53.177926 141.89772,66.803038 119.89801,90.914705 108.81583,121.31435 76.028064,137.46612 52.902879,168.04774 45.904096,204.29105 24.784973,220.01187 9.8037463,242.80321 3.6171122,268.7145 c -6.3078371,26.43782 -3.20600344,55.09929 8.7394698,80.71644 18.974657,40.69129 58.239318,67.33967 102.473558,69.54302 0.22169,0.0107 0.44146,0.0163 0.66149,0.0118 l 246.9105,62.43773 c 0,0 0.004,-0.002 0.005,0.002 5.575,1.68742 11.51047,-1.08033 13.8056,-6.43766 l -0.002,-0.004 43.00008,-88.91354 c 2.9987,-6.19678 0.18164,-13.70014 -6.2975,-16.32959 -5.91358,-2.40248 -12.67631,0.5186 -15.45739,6.26267 l -10.0109,20.70091 22.67462,-166.5517 c 18.08395,-2.90076 36.8115,1.15026 52.42245,11.26711 l -21.56683,44.60156 c -2.88127,5.96125 -0.38793,13.12486 5.56907,16.00811 3.37537,1.63362 7.13725,1.53744 10.28955,0.0675 2.40983,-1.12371 4.46894,-3.05494 5.71658,-5.64083 l 24.53893,-50.7446 c 0.14712,-0.1719 0.28799,-0.34606 0.42267,-0.5225 C 514.25909,209.90196 519.0841,162.69422 500.1035,121.99021 488.15892,96.373261 468.20101,75.571911 443.90433,63.410363 423.02907,52.959105 399.63712,49.228792 376.92779,52.556088 342.86946,33.816409 293.6347,31.876443 257.49591,47.288538 Z m -8.18559,188.296852 c 1.91208,-1.07241 3.77915,-2.03085 5.53561,-2.8499 l 0.0127,-0.006 0.0127,-0.006 c 1.94737,-0.90808 3.97476,-1.75536 5.96791,-2.49879 16.1499,-5.92961 33.41578,-6.2537 50.05216,-0.93831 L 345.85348,427.90179 216.21496,273.4969 c 6.61789,-16.24687 18.08469,-29.37269 33.09536,-37.91151 z m -53.92675,50.38356 c 0,0 0.005,0.002 0.0107,-1.9e-4 L 306.83261,418.70092 164.91879,329.16668 c 3.60697,-14.66208 11.90044,-31.75743 30.46486,-43.1982 z m 99.83167,153.74339 -167.22013,-42.28505 c 2.28231,-18.45545 11.21686,-35.40554 25.06539,-47.40029 z m 38.63438,-218.25951 c 0.006,-0.0186 0.018,-0.0393 0.0266,-0.0537 20.66515,-6.8471 39.08597,-2.22433 52.64477,4.43322 l -22.63324,166.2638 z m 61.61766,-17.90656 c -17.0157,-7.98973 -34.89147,-10.94522 -52.31827,-8.71762 6.02934,-26.66951 3.08289,-54.80945 -8.91401,-80.5369 -1.95464,-4.19175 -4.12849,-8.25544 -6.46163,-12.08473 C 318.7956,87.318384 306.742,74.473523 292.65278,64.540656 c 22.29374,-4.672718 45.5319,-0.219887 67.09153,13.161141 15.99476,9.943035 28.6958,24.309293 36.73397,41.547203 12.77441,27.3948 12.24979,58.17087 -1.011,84.29727 z M 258.13825,72.913086 c 20.31714,8.035947 37.76238,22.839701 49.11793,41.686604 l 0.0365,0.0553 c 1.88227,3.08397 3.63753,6.37182 5.22023,9.76594 12.13539,26.02443 12.84572,55.06245 2.24789,80.99563 -19.30793,-5.4281 -39.92254,-5.03005 -58.88811,1.164 L 192.41801,70.501733 c 21.33937,-6.918743 44.26555,-6.147847 65.72027,2.411335 z M 130.32042,132.4174 c 7.24286,-21.87396 21.3819,-39.902827 40.37517,-51.786335 L 234.15417,216.7184 c -16.92107,10.54533 -30.48811,26.11228 -38.6852,44.35585 -26.70415,-8.51832 -48.51488,-27.73256 -60.66412,-53.78669 -1.62426,-3.48322 -3.03583,-7.00879 -4.21662,-10.54901 -7.06825,-20.7738 -7.16474,-43.61059 -0.2746,-64.30252 z m -28.68199,21.86619 c -1.32171,16.87117 0.7609,34.00918 6.23748,50.1069 1.4481,4.33498 3.1985,8.72011 5.20656,13.02639 11.98898,25.71047 31.62689,46.03607 55.89292,58.5528 -13.01223,11.89405 -22.12367,27.34607 -26.91046,45.71425 -28.52314,-6.63709 -52.423752,-26.01314 -65.194204,-53.39947 -8.034211,-17.22941 -10.877315,-36.19768 -8.215151,-54.83542 3.40006,-23.64598 15.291956,-44.58869 32.982855,-59.16545 z M 34.078968,339.30163 C 17.72764,304.23609 22.303734,265.75479 44.282228,238.73985 c 1.326009,13.63242 4.970523,27.03081 10.866101,39.67392 14.475822,31.04349 40.465347,53.83588 71.869251,63.95908 -12.25365,14.40698 -20.20121,32.25526 -22.71447,51.34525 C 73.848052,388.34348 47.583397,368.26197 34.078968,339.30163 Z M 478.3866,132.11758 c 13.50839,28.96883 12.00912,61.99686 -3.44953,88.77107 -16.24549,-10.3478 -35.02242,-15.73426 -53.93303,-15.61427 12.42469,-30.55564 11.67047,-65.11545 -2.80338,-96.15469 -5.89755,-12.647349 -13.82063,-24.055763 -23.41558,-33.832324 34.82243,0.517899 67.24624,21.756196 83.60152,56.830214 z"
     id="path11"
     sodipodi:nodetypes="cscccscccccccccccccsscccsccccscscccccccccccccccccccccscccsccccsccccccccsccccssccsccsssccssccscsc"
     style="stroke-width:1.1984" />
  <path
     style="fill:#000000;stroke-width:0.8988"
     d="M 160.02408,30.081676 295.31606,320.21625"
     id="path19"
     sodipodi:nodetypes="cc" />
</svg>
