<?xml version="1.0" encoding="UTF-8" standalone="no"?>
<svg
   height="512pt"
   viewBox="0 0 512 512"
   width="512pt"
   version="1.1"
   id="svg11"
   sodipodi:docname="parachute.svg"
   inkscape:version="1.4.2 (ebf0e940, 2025-05-08)"
   xmlns:inkscape="http://www.inkscape.org/namespaces/inkscape"
   xmlns:sodipodi="http://sodipodi.sourceforge.net/DTD/sodipodi-0.dtd"
   xmlns:xlink="http://www.w3.org/1999/xlink"
   xmlns="http://www.w3.org/2000/svg"
   xmlns:svg="http://www.w3.org/2000/svg">
  <defs
     id="defs11">
    <linearGradient
       id="linearGradient26"
       inkscape:collect="always">
      <stop
         style="stop-color:#404040;stop-opacity:1;"
         offset="0.57763976"
         id="stop26" />
      <stop
         style="stop-color:#b6b6b6;stop-opacity:1;"
         offset="0.61490685"
         id="stop27" />
    </linearGradient>
    <inkscape:path-effect
       effect="mirror_symmetry"
       start_point="256,0"
       end_point="256,512"
       center_point="256,256"
       id="path-effect13"
       is_visible="false"
       lpeversion="1.2"
       lpesatellites=""
       mode="vertical"
       discard_orig_path="false"
       fuse_paths="false"
       oposite_fuse="false"
       split_items="false"
       split_open="false"
       link_styles="false" />
    <inkscape:path-effect
       effect="mirror_symmetry"
       start_point="256,0"
       end_point="256,512"
       center_point="256,256"
       id="path-effect12"
       is_visible="true"
       lpeversion="1.2"
       lpesatellites=""
       mode="vertical"
       discard_orig_path="false"
       fuse_paths="false"
       oposite_fuse="false"
       split_items="true"
       split_open="false"
       link_styles="false" />
    <linearGradient
       inkscape:collect="always"
       xlink:href="#linearGradient26"
       id="linearGradient27"
       x1="255.99786"
       y1="5.8763423"
       x2="255.99786"
       y2="508.83911"
       gradientUnits="userSpaceOnUse" />
  </defs>
  <sodipodi:namedview
     id="namedview11"
     pagecolor="#ffffff"
     bordercolor="#000000"
     borderopacity="0.25"
     inkscape:showpageshadow="2"
     inkscape:pageopacity="0.0"
     inkscape:pagecheckerboard="0"
     inkscape:deskcolor="#d1d1d1"
     inkscape:document-units="pt"
     inkscape:zoom="0.73223379"
     inkscape:cx="340.05533"
     inkscape:cy="247.18881"
     inkscape:window-width="1064"
     inkscape:window-height="1097"
     inkscape:window-x="0"
     inkscape:window-y="44"
     inkscape:window-maximized="0"
     inkscape:current-layer="svg11" />
  <path
     d="m 94.308978,126.0062 c -45.976875,8.55312 -78.592499,49.66062 -78.592499,99.07187 0,38.95938 21.669374,72.72563 53.361874,89.4775 10.94625,-23.59 32.545627,-41.01562 58.441247,-45.84562 0.10938,-0.17938 -2.01687,-0.33688 -1.88125,-0.52063"
     fill="#f5737f"
     id="path1"
     style="stroke-width:1.12" />
  <path
     d="m 385.26398,268.18932 c 0.14,0.17938 -0.87063,0.34125 -0.75688,0.52063 25.89563,4.83 47.46875,22.25562 58.41938,45.84562 31.71,-16.75187 53.3575,-50.51812 53.3575,-89.4775 0,-49.41125 -32.585,-90.51875 -78.56625,-99.07187"
     fill="#ffa6cf"
     id="path2"
     style="stroke-width:1.12" />
  <g
     fill="#eff3f3"
     id="g7"
     transform="matrix(1.12,0,0,1.12,-30.719772,-29.446302)">
    <path
       d="m 186.94141,98.726562 c -30.57032,0 -57.51563,15.902348 -73.31641,40.070308 -9.3125,14.26954 -14.757812,31.39844 -14.757812,49.83985 0,32.73047 17.128902,61.36719 42.730472,77.10937 11.93359,-17.99609 29.5039,-30.3164 51.97265,-32.11718"
       id="path6"
       sodipodi:nodetypes="ccscc" />
    <path
       d="m 318.15234,233.60547 c 22.57032,1.72265 40.25,14.07031 52.25391,32.14062 25.59766,-15.73828 42.72656,-44.3789 42.72656,-77.10937 0,-18.44141 -5.4414,-35.57031 -14.7539,-49.83985 C 382.57812,114.63281 357.63672,98.730469 327.0625,98.730469"
       id="path7"
       sodipodi:nodetypes="ccscc" />
  </g>
  <path
     d="m 182.00148,80.169323 c -15.34313,16.21375 -25.59813,37.458747 -28.16625,61.061877 -0.44625,3.88062 -0.66063,7.80937 -0.66063,11.8125 0,34.2825 16.09563,64.70625 40.99375,83.86 0.44625,0.0481 0.86625,0.14437 1.29063,0.21437 1.29937,-1.36937 2.63812,-2.70812 4.025,-3.97687 13.3875,-12.44688 30.72562,-20.51875 49.87937,-22.07625 2.18313,-0.1575 4.41,-0.25375 6.63688,-0.25375 V 48.052447 c -29.05875,0 -55.31313,12.306876 -73.99875,32.116876 z m 0,0"
     fill="#60a4ff"
     id="path8"
     style="stroke-width:1.12;fill:#60a4ff;fill-opacity:1" />
  <path
     d="m 358.19148,141.46307 c -2.52,-23.66875 -12.775,-44.983747 -28.14,-61.223747 C 311.36585,60.381198 285.08523,48.052447 256.00023,48.052447 V 210.8112 h 0.0263 c 2.35375,0 4.68125,0.0962 6.99125,0.28 19.17125,1.6275 36.51375,9.79125 49.87937,22.33 1.295,1.19875 2.54188,2.45 3.7625,3.74062 0.35438,-0.07 0.70875,-0.13562 1.085,-0.16187 24.94188,-19.17563 41.08125,-49.65188 41.08125,-83.95625 0,-3.9025 -0.21,-7.7875 -0.63437,-11.58063 z m 0,0"
     fill="#9bc6ff"
     id="path9"
     style="stroke-width:1.12;fill:#9bc6ff;fill-opacity:1" />
  <path
     id="path29"
     style="fill:url(#linearGradient27);stroke-width:1.12;fill-rule:nonzero"
     d="M 416.43164 296.86084 C 414.79308 295.18479 413.21418 293.64668 411.71484 292.30518 L 408.69727 290.67627 C 411.41228 292.54842 413.99692 294.61605 416.43164 296.86084 z " />
  <g
     id="g29">
    <path
       style="baseline-shift:baseline;display:inline;overflow:visible;vector-effect:none;enable-background:accumulate;stop-color:#000000;stop-opacity:1;opacity:1;fill:#1a1a1a"
       d="m 362.80664,370.78125 c 1.70214,-0.12788 3.44045,0.25612 4.92578,1.17969 l 0.002,0.002 c 2.82197,1.75189 4.3647,5.3033 3.70899,8.55664 -0.75618,3.7491 -4.21072,6.60938 -8.03711,6.60938 -3.37571,0 -6.57436,-2.26607 -7.71875,-5.44532 -1.12176,-3.12827 -0.13082,-6.86879 2.4082,-9.00195 l 0.002,-0.002 0.002,-0.002 c 1.33957,-1.12932 3.00489,-1.7686 4.70703,-1.89648 z"
       id="path41" />
    <path
       style="baseline-shift:baseline;display:inline;overflow:visible;vector-effect:none;enable-background:accumulate;stop-color:#000000;stop-opacity:1;opacity:1;fill:#1a1a1a"
       d="m 188.04102,234.82812 c 4.5059,-0.34512 11.75396,1.54526 15.4121,3.90821 18.06412,61.27508 33.36512,123.3987 49.64649,185.29297 l 2.88476,10.96484 2.91602,-10.95703 c 15.90032,-59.74849 31.7989,-119.4976 47.69922,-179.24609 l 0.11133,-0.41211 -0.01,-0.42579 c -0.0517,-2.30266 0.60867,-3.20176 1.85352,-4.02148 1.24485,-0.81972 3.37578,-1.30565 5.76172,-1.19922 2.38593,0.10644 4.97251,0.77638 6.96289,1.75586 1.59305,0.78395 2.55885,1.71998 3.10547,2.48828 -13.82671,52.09919 -27.9301,104.1972 -41.86524,156.3086 l 5.42383,2.39453 c 26.98451,-42.09745 53.9686,-84.19552 80.95312,-126.29297 l 0.20118,-0.3125 0.11718,-0.35352 c 1.42446,-4.25306 3.15792,-5.6787 5.18164,-6.07617 1.90659,-0.37446 4.88634,0.48246 8.43164,2.78516 0.69327,1.79035 1.53331,3.54043 2.17969,5.03711 0.79583,1.8427 0.89057,3.09345 0.78906,3.40429 l -84.76953,131.77344 4.41993,3.94922 14.29101,-11.65234 0.23438,-0.33204 c 1.67378,-2.36067 3.62442,-3.28429 5.76562,-3.48242 2.1412,-0.19813 4.50551,0.48257 6.40039,1.77344 1.89489,1.29087 3.24703,3.12995 3.67774,5.01172 0.42197,1.8436 0.12001,3.82385 -1.75196,6.19726 -20.12029,17.1187 -40.98014,33.51518 -61.46289,50.42188 l 0.24805,-0.18359 c -4.12091,2.74152 -7.64049,6.6849 -11.08984,9.07617 -1.72468,1.19563 -3.35902,1.97977 -4.88868,2.23437 -1.48527,0.24722 -2.9373,0.0685 -4.79492,-0.90625 C 200.57454,432.03879 149.30816,390.00445 97.884766,348.1582 86.693283,338.16667 73.917671,330.5923 65.478516,319.52539 l -0.07031,-0.0918 -0.07617,-0.0859 c -3.362342,-3.76691 -3.737926,-6.01768 -3.617187,-6.55079 0.06037,-0.26655 0.132392,-0.42088 0.603515,-0.74414 0.471124,-0.32325 1.346678,-0.68533 2.503907,-0.91406 4.587008,-0.90662 13.144362,0.63203 17.0625,2.81445 41.554399,33.88032 83.109649,67.76032 124.664059,101.64063 l 4.41797,-3.94727 c -27.39243,-42.583 -54.78335,-85.167 -82.17578,-127.75 l -0.16993,-0.26171 -0.21875,-0.22266 c -2.2595,-2.2899 -2.50567,-3.61392 -2.39257,-4.39258 0.1131,-0.77865 0.82422,-1.82202 2.5039,-2.95117 2.89819,-1.94828 7.8475,-3.41399 11.89649,-4.42188 27.88321,43.34566 55.76717,86.69146 83.65039,130.03711 l 5.41992,-2.40039 C 216.36487,350.39595 200.24066,290.07487 187.12305,241.18359 l -0.16407,-0.60742 -0.39257,-0.49023 c -1.19097,-1.48709 -1.78233,-2.65254 -1.98438,-3.33789 -0.20205,-0.68535 -0.1011,-0.76718 -0.0742,-0.81836 0.0538,-0.10236 1.14497,-0.91864 3.53321,-1.10157 z"
       id="path40" />
    <path
       style="baseline-shift:baseline;display:inline;overflow:visible;vector-effect:none;enable-background:accumulate;stop-color:#000000;stop-opacity:1;opacity:1;fill:#1a1a1a"
       d="m 439.82227,310.34766 c 2.20335,-0.0965 4.53772,0.0225 6.35937,0.41796 1.82165,0.39544 2.96366,1.11031 3.27148,1.52735 0.0204,0.0276 0.39142,2.05798 -0.6875,4.68164 -1.07891,2.62366 -3.18443,5.61086 -5.86718,7.71289 l -0.0234,0.0176 -38.00977,30.99219 c -1.53041,1.25011 -3.34846,1.84375 -5.17187,1.84375 -2.38697,0 -4.73115,-1.01257 -6.36328,-3.01563 -2.8834,-3.53886 -2.36403,-8.65165 1.17578,-11.53906 l 39.14258,-31.73828 c 0.20319,-0.0683 0.23457,-0.0952 0.54883,-0.17188 1.31916,-0.32186 3.42164,-0.63204 5.625,-0.72851 z"
       id="path42" />
  </g>
  <path
     id="path27"
     style="fill:#1a1a1a;fill-rule:nonzero;stroke-width:1.12"
     d="m 256.00049,36.852539 c -30.13062,0 -58.28789,11.733594 -79.68164,33.105469 -34.15125,0.730625 -65.81792,17.500685 -86.061037,45.435062 -24.097506,4.97437 -45.788321,18.36098 -61.262696,37.86474 -15.785,19.90187 -24.4790037,45.40357 -24.4790037,71.81983 0,41.96062 22.7322267,80.04044 59.3291017,99.37793 0.18375,0.0962 0.368514,0.18933 0.55664,0.27246 l 4.110352,3.35156 c 5.726888,-5.39553 10.982337,-11.74663 15.723633,-17.8125 1.700169,-2.60465 24.47869,-36.51056 52.78495,-28.04719 19.13988,-47.63597 53.08541,-37.77107 60.18799,-35.0876 27.18515,-20.49776 49.38387,-31.64582 83.89182,-20.6162 18.43,5.25673 33.09804,22.08523 33.09804,22.08523 3.22481,-1.78125 33.4133,-16.70913 62.89007,30.67955 34.84169,3.99818 45.00092,26.24182 67.65984,47.76745 l 2.84179,-2.31592 c 0.19251,-0.0875 0.38021,-0.18059 0.56397,-0.27685 36.59249,-19.32437 59.3247,-57.40419 59.3247,-99.37793 0,-26.41626 -8.68811,-51.91793 -24.46435,-71.81543 C 469.4609,136.1647 451.12116,123.76646 430.57179,117.61522 409.12543,88.290387 368.18868,67.200404 331.49121,65.980957 313.96549,47.133457 284.21049,36.852539 256.00049,36.852539 Z m -11.2002,23.087402 V 200.27197 c -18.49751,2.24875 -36.13788,10.07553 -50.28662,22.29053 -19.25437,-17.7625 -30.13916,-42.65168 -30.13916,-69.51855 0,-3.59188 0.1966,-7.13608 0.59473,-10.60108 2.21811,-20.38751 11.15725,-39.76922 25.16601,-54.574218 l 0.0132,-0.01172 c 14.77438,-15.666896 33.8706,-25.353243 54.65185,-27.916993 z m 22.40039,0 c 20.80749,2.568124 39.9215,12.275278 54.71338,27.999024 14.035,14.831255 22.96382,34.261695 25.13819,54.710445 l 0.009,0.0601 c 0.37624,3.35562 0.56542,6.83448 0.56542,10.33448 0,26.83625 -10.86851,51.71218 -30.08789,69.49218 -14.2102,-12.22375 -31.82727,-20.02858 -50.33789,-22.27295 z m 87.25489,34.539551 c 20.72875,4.847494 38.65215,17.798578 51.62841,37.647948 9.62062,14.73937 14.70557,31.92359 14.70557,49.69922 0,28.24937 -12.60011,54.11056 -34.15137,71.00244 -11.25687,-13.48813 -25.23145,-23.05258 -40.87207,-28.04883 15.64062,-20.20812 24.25928,-45.20632 24.25928,-71.73632 0,-4.32251 -0.23643,-8.62309 -0.70019,-12.78809 -1.72375,-16.15687 -6.85901,-31.79824 -14.86963,-45.776368 z m -197.23828,0.569824 c -7.78312,13.768124 -12.78845,29.106654 -14.50782,44.904784 -0.48563,4.24375 -0.73535,8.64923 -0.73535,13.08985 0,26.51249 8.6068,51.48416 24.2168,71.67041 -15.71938,4.935 -29.54072,14.42526 -40.8501,28.09277 -21.53813,-16.88751 -34.129394,-42.73985 -34.129394,-70.98047 0,-17.76688 5.083455,-34.95543 14.699704,-49.69043 12.21937,-18.68562 30.56429,-31.72754 51.30616,-37.086914 z m 279.50097,48.873044 c 29.29063,14.1925 48.36621,44.98715 48.36621,81.15528 0,29.87249 -14.31611,57.25563 -37.98486,73.82812 -9.67313,-15.18124 -23.44916,-27.15888 -39.51416,-34.52637 22.59249,-20.97375 35.60303,-50.54523 35.60303,-82.55273 0,-13.04187 -2.20459,-25.83367 -6.47022,-37.9043 z m -361.43994,0.009 c -4.261249,12.07062 -6.467285,24.85801 -6.467285,37.89551 0,32.01188 13.012024,61.58193 35.613285,82.56006 -16.069377,7.36312 -29.851273,19.34217 -39.520023,34.51904 -23.673124,-16.58124 -37.987793,-43.96438 -37.987793,-73.82812 0,-36.15938 19.075567,-66.94524 48.361816,-81.14649 z"
     sodipodi:nodetypes="scccsccccccccccccscccscccsccccccccscccccsccsccccsccsccccccsccsccscs" />
</svg>
