<?xml version="1.0" encoding="UTF-8" standalone="no"?>
<svg
   height="512pt"
   viewBox="0 0 512 512"
   width="512pt"
   version="1.1"
   id="svg11"
   sodipodi:docname="parachute.svg"
   inkscape:version="1.4.2 (ebf0e940, 2025-05-08)"
   xmlns:inkscape="http://www.inkscape.org/namespaces/inkscape"
   xmlns:sodipodi="http://sodipodi.sourceforge.net/DTD/sodipodi-0.dtd"
   xmlns:xlink="http://www.w3.org/1999/xlink"
   xmlns="http://www.w3.org/2000/svg"
   xmlns:svg="http://www.w3.org/2000/svg">
  <defs
     id="defs11">
    <linearGradient
       id="linearGradient26"
       inkscape:collect="always">
      <stop
         style="stop-color:#404040;stop-opacity:1;"
         offset="0.57763976"
         id="stop26" />
      <stop
         style="stop-color:#b6b6b6;stop-opacity:1;"
         offset="0.61490685"
         id="stop27" />
    </linearGradient>
    <inkscape:path-effect
       effect="mirror_symmetry"
       start_point="256,0"
       end_point="256,512"
       center_point="256,256"
       id="path-effect13"
       is_visible="false"
       lpeversion="1.2"
       lpesatellites=""
       mode="vertical"
       discard_orig_path="false"
       fuse_paths="false"
       oposite_fuse="false"
       split_items="false"
       split_open="false"
       link_styles="false" />
    <inkscape:path-effect
       effect="mirror_symmetry"
       start_point="256,0"
       end_point="256,512"
       center_point="256,256"
       id="path-effect12"
       is_visible="true"
       lpeversion="1.2"
       lpesatellites=""
       mode="vertical"
       discard_orig_path="false"
       fuse_paths="false"
       oposite_fuse="false"
       split_items="true"
       split_open="false"
       link_styles="false" />
    <linearGradient
       inkscape:collect="always"
       xlink:href="#linearGradient26"
       id="linearGradient27"
       x1="255.99786"
       y1="5.8763423"
       x2="255.99786"
       y2="508.83911"
       gradientUnits="userSpaceOnUse"
       gradientTransform="matrix(0.96974933,-0.45220154,0.45220154,0.96974933,-93.804253,131.39281)" />
  </defs>
  <sodipodi:namedview
     id="namedview11"
     pagecolor="#ffffff"
     bordercolor="#000000"
     borderopacity="0.25"
     inkscape:showpageshadow="2"
     inkscape:pageopacity="0.0"
     inkscape:pagecheckerboard="0"
     inkscape:deskcolor="#d1d1d1"
     inkscape:document-units="pt"
     inkscape:zoom="0.66878617"
     inkscape:cx="346.89713"
     inkscape:cy="382.78303"
     inkscape:window-width="1064"
     inkscape:window-height="1097"
     inkscape:window-x="0"
     inkscape:window-y="44"
     inkscape:window-maximized="0"
     inkscape:current-layer="svg11" />
  <path
     d="m 54.632011,210.94058 c -40.71831,29.08519 -53.75841439,83.698 -31.41457,131.61452 17.617491,37.78084 53.900502,60.72671 92.209509,62.64042 -0.0523,-27.82629 13.01377,-54.49205 35.9419,-70.88598 0.0249,-0.22341 -2.1082,0.58535 -2.05977,0.34583"
     fill="#f5737f"
     id="path1"
     style="stroke-width:1.1984" />
  <path
     d="m 401.08086,217.25226 c 0.21688,0.11065 -0.68998,0.72463 -0.49855,0.84714 27.2964,-7.02615 56.09681,0.11693 77.3836,18.04143 23.17554,-30.58443 28.89904,-73.11826 11.28155,-110.89909 -22.34385,-47.916531 -72.532,-73.045514 -120.99003,-60.547104"
     fill="#ffa6cf"
     id="path2"
     style="stroke-width:1.1984" />
  <g
     fill="#eff3f3"
     id="g7"
     transform="matrix(1.0861192,-0.50646572,0.50646572,1.0861192,-136.91039,116.72881)">
    <path
       d="m 186.94141,98.726562 c -30.57032,0 -57.51563,15.902348 -73.31641,40.070308 -9.3125,14.26954 -14.757812,31.39844 -14.757812,49.83985 0,32.73047 17.128902,61.36719 42.730472,77.10937 11.93359,-17.99609 29.5039,-30.3164 51.97265,-32.11718"
       id="path6"
       sodipodi:nodetypes="ccscc" />
    <path
       d="m 318.15234,233.60547 c 22.57032,1.72265 40.25,14.07031 52.25391,32.14062 25.59766,-15.73828 42.72656,-44.3789 42.72656,-77.10937 0,-18.44141 -5.4414,-35.57031 -14.7539,-49.83985 C 382.57812,114.63281 357.63672,98.730469 327.0625,98.730469"
       id="path7"
       sodipodi:nodetypes="ccscc" />
  </g>
  <path
     d="m 118.94426,126.83561 c -7.54711,22.66146 -7.88488,47.90111 0.29807,71.95153 1.32207,3.96503 2.89076,7.87187 4.70098,11.75391 15.5026,33.24542 44.86899,55.47037 77.67529,62.78574 0.45449,-0.15515 0.90533,-0.25172 1.34852,-0.37574 0.64083,-1.91553 1.3337,-3.81916 2.10489,-5.67667 7.35403,-18.12421 20.51754,-33.79223 38.38758,-43.96396 2.04586,-1.13996 4.16184,-2.24029 6.32136,-3.24729 L 176.18119,62.227938 c -28.1797,13.140411 -48.07468,36.947263 -57.23693,64.607672 z m 0,0"
     fill="#60a4ff"
     id="path8"
     style="fill:#60a4ff;fill-opacity:1;stroke-width:1.1984" />
  <path
     d="M 317.52151,106.60178 C 304.3747,84.78858 284.79125,68.755703 262.5473,59.95505 235.44704,49.147318 204.38635,49.075656 176.18119,62.227938 l 73.59976,157.835192 0.0255,-0.0119 c 2.28255,-1.06437 4.58314,-2.02358 6.90638,-2.88993 19.32726,-7.091 39.8368,-7.01651 58.46814,-0.90102 1.79791,0.57689 3.57288,1.22644 5.3402,1.92606 0.31201,-0.22813 0.62598,-0.45202 0.97898,-0.64762 15.51612,-29.87431 17.38586,-66.72688 1.87337,-99.99352 -1.76472,-3.78444 -3.72517,-7.45696 -5.85196,-10.94345 z m 0,0"
     fill="#9bc6ff"
     id="path9"
     style="fill:#9bc6ff;fill-opacity:1;stroke-width:1.1984" />
  <path
     id="path29"
     style="fill:url(#linearGradient27);fill-rule:nonzero;stroke-width:1.1984"
     d="m 444.27098,230.96238 c -2.3469,-0.88438 -4.57357,-1.66198 -6.63419,-2.28491 l -3.66288,-0.21508 c 3.47947,0.58779 6.9209,1.42409 10.29707,2.49999 z" />
  <g
     id="g29"
     transform="matrix(0.96974933,-0.45220154,0.45220154,0.96974933,-93.804253,131.39281)">
    <path
       style="baseline-shift:baseline;display:inline;overflow:visible;opacity:1;vector-effect:none;fill:#1a1a1a;enable-background:accumulate;stop-color:#000000;stop-opacity:1"
       d="m 362.80664,370.78125 c 1.70214,-0.12788 3.44045,0.25612 4.92578,1.17969 l 0.002,0.002 c 2.82197,1.75189 4.3647,5.3033 3.70899,8.55664 -0.75618,3.7491 -4.21072,6.60938 -8.03711,6.60938 -3.37571,0 -6.57436,-2.26607 -7.71875,-5.44532 -1.12176,-3.12827 -0.13082,-6.86879 2.4082,-9.00195 l 0.002,-0.002 0.002,-0.002 c 1.33957,-1.12932 3.00489,-1.7686 4.70703,-1.89648 z"
       id="path41" />
    <path
       style="baseline-shift:baseline;display:inline;overflow:visible;opacity:1;vector-effect:none;fill:#1a1a1a;enable-background:accumulate;stop-color:#000000;stop-opacity:1"
       d="m 188.04102,234.82812 c 4.5059,-0.34512 11.75396,1.54526 15.4121,3.90821 18.06412,61.27508 33.36512,123.3987 49.64649,185.29297 l 2.88476,10.96484 2.91602,-10.95703 c 15.90032,-59.74849 31.7989,-119.4976 47.69922,-179.24609 l 0.11133,-0.41211 -0.01,-0.42579 c -0.0517,-2.30266 0.60867,-3.20176 1.85352,-4.02148 1.24485,-0.81972 3.37578,-1.30565 5.76172,-1.19922 2.38593,0.10644 4.97251,0.77638 6.96289,1.75586 1.59305,0.78395 2.55885,1.71998 3.10547,2.48828 -13.82671,52.09919 -27.9301,104.1972 -41.86524,156.3086 l 5.42383,2.39453 c 26.98451,-42.09745 53.9686,-84.19552 80.95312,-126.29297 l 0.20118,-0.3125 0.11718,-0.35352 c 1.42446,-4.25306 3.15792,-5.6787 5.18164,-6.07617 1.90659,-0.37446 4.88634,0.48246 8.43164,2.78516 0.69327,1.79035 1.53331,3.54043 2.17969,5.03711 0.79583,1.8427 0.89057,3.09345 0.78906,3.40429 l -84.76953,131.77344 4.41993,3.94922 14.29101,-11.65234 0.23438,-0.33204 c 1.67378,-2.36067 3.62442,-3.28429 5.76562,-3.48242 2.1412,-0.19813 4.50551,0.48257 6.40039,1.77344 1.89489,1.29087 3.24703,3.12995 3.67774,5.01172 0.42197,1.8436 0.12001,3.82385 -1.75196,6.19726 -20.12029,17.1187 -40.98014,33.51518 -61.46289,50.42188 l 0.24805,-0.18359 c -4.12091,2.74152 -7.64049,6.6849 -11.08984,9.07617 -1.72468,1.19563 -3.35902,1.97977 -4.88868,2.23437 -1.48527,0.24722 -2.9373,0.0685 -4.79492,-0.90625 C 200.57454,432.03879 149.30816,390.00445 97.884766,348.1582 86.693283,338.16667 73.917671,330.5923 65.478516,319.52539 l -0.07031,-0.0918 -0.07617,-0.0859 c -3.362342,-3.76691 -3.737926,-6.01768 -3.617187,-6.55079 0.06037,-0.26655 0.132392,-0.42088 0.603515,-0.74414 0.471124,-0.32325 1.346678,-0.68533 2.503907,-0.91406 4.587008,-0.90662 13.144362,0.63203 17.0625,2.81445 41.554399,33.88032 83.109649,67.76032 124.664059,101.64063 l 4.41797,-3.94727 c -27.39243,-42.583 -54.78335,-85.167 -82.17578,-127.75 l -0.16993,-0.26171 -0.21875,-0.22266 c -2.2595,-2.2899 -2.50567,-3.61392 -2.39257,-4.39258 0.1131,-0.77865 0.82422,-1.82202 2.5039,-2.95117 2.89819,-1.94828 7.8475,-3.41399 11.89649,-4.42188 27.88321,43.34566 55.76717,86.69146 83.65039,130.03711 l 5.41992,-2.40039 C 216.36487,350.39595 200.24066,290.07487 187.12305,241.18359 l -0.16407,-0.60742 -0.39257,-0.49023 c -1.19097,-1.48709 -1.78233,-2.65254 -1.98438,-3.33789 -0.20205,-0.68535 -0.1011,-0.76718 -0.0742,-0.81836 0.0538,-0.10236 1.14497,-0.91864 3.53321,-1.10157 z"
       id="path40" />
    <path
       style="baseline-shift:baseline;display:inline;overflow:visible;opacity:1;vector-effect:none;fill:#1a1a1a;enable-background:accumulate;stop-color:#000000;stop-opacity:1"
       d="m 439.82227,310.34766 c 2.20335,-0.0965 4.53772,0.0225 6.35937,0.41796 1.82165,0.39544 2.96366,1.11031 3.27148,1.52735 0.0204,0.0276 0.39142,2.05798 -0.6875,4.68164 -1.07891,2.62366 -3.18443,5.61086 -5.86718,7.71289 l -0.0234,0.0176 -38.00977,30.99219 c -1.53041,1.25011 -3.34846,1.84375 -5.17187,1.84375 -2.38697,0 -4.73115,-1.01257 -6.36328,-3.01563 -2.8834,-3.53886 -2.36403,-8.65165 1.17578,-11.53906 l 39.14258,-31.73828 c 0.20319,-0.0683 0.23457,-0.0952 0.54883,-0.17188 1.31916,-0.32186 3.42164,-0.63204 5.625,-0.72851 z"
       id="path42" />
  </g>
  <path
     id="path27"
     style="fill:#1a1a1a;fill-rule:nonzero;stroke-width:1.1984"
     d="M 171.11682,51.366717 C 141.89768,64.991829 119.89813,89.103236 108.81595,119.50288 76.028189,135.65466 52.902904,166.23713 45.904123,202.48044 24.785,218.20127 9.8037928,240.99154 3.6171578,266.90283 c -6.3078372,26.43783 -3.20693319,55.09953 8.7385402,80.71668 18.974658,40.69129 58.238972,67.33961 102.473212,69.54297 0.22169,0.0107 0.44298,0.017 0.66301,0.0125 l 5.50159,1.39146 c 3.11379,-7.82202 5.33827,-16.35752 7.19314,-24.38391 0.47092,-3.29468 7.22806,-46.4754 38.50519,-51.06818 -2.98017,-54.85004 34.39941,-60.63377 42.50059,-61.24328 17.09367,-32.17085 33.57969,-53.01998 72.03136,-57.92856 20.24958,-3.23636 42.08378,6.45015 42.08378,6.45015 2.32178,-3.18562 24.84664,-31.3132 74.86094,1.31249 35.59569,-11.87823 55.50621,5.09851 87.21361,15.72657 l 1.70856,-3.53093 c 0.14712,-0.1719 0.28704,-0.34705 0.42171,-0.52349 26.74704,-35.28698 31.57183,-82.4944 12.59124,-123.19841 C 488.15816,94.561749 468.20098,73.760299 443.90429,61.598751 423.02903,51.147493 399.63758,47.417566 376.92823,50.744863 342.86991,32.005202 293.6346,30.064867 257.49582,45.476961 231.9774,35.124768 198.47345,38.610112 171.11682,51.366717 Z m -0.42122,27.45374 63.45836,136.086903 c -16.92106,10.54532 -30.48852,26.11234 -38.6856,44.3559 -26.70414,-8.51831 -48.51459,-27.73246 -60.66383,-53.78658 -1.62426,-3.48323 -3.03629,-7.00911 -4.21709,-10.54934 -7.06825,-20.7738 -7.16396,-43.6115 -0.27382,-64.30341 l 0.007,-0.0173 c 7.24285,-21.87396 21.38122,-39.902631 40.37449,-51.786139 z m 21.72276,-10.12949 c 21.33937,-6.918743 44.26475,-6.148621 65.71947,2.410559 20.31715,8.035952 37.76234,22.840982 49.11789,41.687894 l 0.036,0.0543 c 1.88227,3.08398 3.63888,6.37206 5.22158,9.76617 12.13539,26.02444 12.8446,55.06262 2.24676,80.99579 -19.30793,-5.4281 -39.92143,-5.03036 -58.887,1.16369 z m 100.23421,-5.962089 c 22.29374,-4.672719 45.53144,-0.218403 67.09108,13.162625 15.99475,9.943035 28.69662,24.307997 36.73478,41.545907 12.77441,27.39481 12.24992,58.17147 -1.01085,84.29787 -17.0157,-7.98973 -34.8926,-10.94552 -52.3194,-8.71792 6.02935,-26.66953 3.08306,-54.80888 -8.91385,-80.53633 -1.95464,-4.19175 -4.12864,-8.25532 -6.4618,-12.08462 C 318.79476,85.507778 306.7418,72.661743 292.65257,62.728878 Z M 101.63855,152.47292 c -1.3217,16.87117 0.76049,34.00912 6.23707,50.10685 1.44809,4.33497 3.19809,8.7201 5.20615,13.02639 11.98899,25.71048 31.62765,46.03473 55.8937,58.55146 -13.01225,11.89405 -22.12398,27.34724 -26.91077,45.71542 -28.52315,-6.63707 -52.423988,-26.01357 -65.19444,-53.39989 -8.034211,-17.22942 -10.877222,-36.19675 -8.215061,-54.83449 3.40006,-23.64599 15.292458,-44.58898 32.983351,-59.16574 z M 394.78491,73.476751 c 34.82243,0.517899 67.24635,21.754984 83.60163,56.829009 13.50839,28.96883 12.00806,61.99738 -3.4506,88.77158 -16.24549,-10.34779 -35.0211,-15.73356 -53.93171,-15.61356 12.42469,-30.55564 11.66939,-65.11595 -2.80445,-96.1552 C 412.30222,94.661232 404.37985,83.253312 394.78491,73.476751 Z M 44.282828,236.92918 c 1.32601,13.63242 4.969186,27.03055 10.864763,39.67366 14.475821,31.0435 40.465845,53.83498 71.869749,63.95818 -12.25365,14.40698 -20.2017,32.25584 -22.71496,51.34583 C 73.847325,386.53223 47.582986,366.45057 34.078558,337.49023 17.727229,302.42469 22.304335,263.94412 44.282828,236.92918 Z"
     sodipodi:nodetypes="scccsccccccccccccscccscccsccccccccscccccsccsccccsccsccccccsccsccscs" />
</svg>
